<svg width="135" height="39" viewBox="0 0 135 39" fill="none" xmlns="http://www.w3.org/2000/svg">
<path d="M134.25 33.9383C134.25 35.9827 132.531 37.6387 130.406 37.6387H4.59932C2.47463 37.6387 0.75 35.9827 0.75 33.9383V4.42897C0.75 2.38555 2.47463 0.723755 4.59932 0.723755H130.405C132.531 0.723755 134.249 2.38555 134.249 4.42897L134.25 33.9383Z" fill="#2B2B2B"/>
<path d="M130 0.768509C132.315 0.768509 134.199 2.57515 134.199 4.79539V33.5673C134.199 35.7876 132.315 37.5942 130 37.5942H5C2.685 37.5942 0.80125 35.7876 0.80125 33.5673V4.79539C0.80125 2.57515 2.685 0.768509 5 0.768509H130ZM130 6.10352e-05H5C2.25125 6.10352e-05 0 2.15916 0 4.79539V33.5673C0 36.2036 2.25125 38.3627 5 38.3627H130C132.749 38.3627 135 36.2036 135 33.5673V4.79539C135 2.15916 132.749 6.10352e-05 130 6.10352e-05Z" fill="#A6A6A6"/>
<path d="M30.128 18.974C30.099 15.883 32.767 14.3792 32.889 14.3091C31.378 12.1963 29.036 11.9076 28.213 11.8846C26.246 11.6861 24.338 13.0134 23.336 13.0134C22.314 13.0134 20.771 11.9038 19.108 11.9364C16.968 11.9681 14.966 13.1564 13.868 15.0016C11.602 18.764 13.292 24.293 15.463 27.3342C16.549 28.8236 17.818 30.4867 19.479 30.4282C21.104 30.3639 21.711 29.4346 23.672 29.4346C25.615 29.4346 26.185 30.4282 27.879 30.3908C29.623 30.3639 30.721 28.8946 31.769 27.3918C33.024 25.6846 33.528 24.0034 33.548 23.9171C33.507 23.9036 30.161 22.6789 30.128 18.974Z" fill="white"/>
<path d="M26.928 9.88402C27.802 8.83576 28.4 7.40963 28.234 5.9624C26.969 6.01611 25.387 6.80158 24.476 7.82683C23.67 8.73026 22.95 10.2111 23.136 11.6036C24.557 11.7053 26.016 10.916 26.928 9.88402Z" fill="white"/>
<path d="M49.05 9.59871C49.05 10.7275 48.697 11.5773 47.992 12.1479C47.339 12.6744 46.411 12.9382 45.209 12.9382C44.613 12.9382 44.103 12.9132 43.676 12.8634V6.69562C44.233 6.6093 44.833 6.56519 45.481 6.56519C46.626 6.56519 47.489 6.80399 48.071 7.28161C48.723 7.82156 49.05 8.59361 49.05 9.59871ZM47.945 9.62652C47.945 8.89476 47.743 8.3337 47.339 7.9424C46.935 7.55206 46.345 7.35641 45.568 7.35641C45.238 7.35641 44.957 7.37751 44.724 7.42163V12.1105C44.853 12.1297 45.089 12.1383 45.432 12.1383C46.234 12.1383 46.853 11.9244 47.289 11.4967C47.725 11.069 47.945 10.4456 47.945 9.62652Z" fill="white"/>
<path d="M54.9091 10.5845C54.9091 11.2798 54.7021 11.8495 54.2881 12.2964C53.8541 12.7558 53.2791 12.985 52.5611 12.985C51.8691 12.985 51.3181 12.7654 50.9071 12.3242C50.4971 11.884 50.2921 11.3287 50.2921 10.6593C50.2921 9.95916 50.5031 9.38468 50.9271 8.93871C51.3511 8.49275 51.9211 8.26929 52.6391 8.26929C53.3311 8.26929 53.8871 8.48891 54.3081 8.92912C54.7081 9.35687 54.9091 9.90929 54.9091 10.5845ZM53.8221 10.6171C53.8221 10.1999 53.7281 9.84215 53.5411 9.54388C53.3211 9.18328 53.0081 9.00297 52.6011 9.00297C52.1801 9.00297 51.8601 9.18328 51.6401 9.54388C51.4521 9.84215 51.3591 10.2056 51.3591 10.6353C51.3591 11.0525 51.4531 11.4102 51.6401 11.7085C51.8671 12.0691 52.1831 12.2494 52.5911 12.2494C52.9911 12.2494 53.3051 12.0662 53.5311 11.6989C53.7251 11.3949 53.8221 11.0343 53.8221 10.6171Z" fill="white"/>
<path d="M62.7651 8.36157L61.2901 12.8826H60.3301L59.7191 10.9194C59.5641 10.4293 59.4381 9.94211 59.3401 9.45874H59.3211C59.2301 9.95554 59.1041 10.4418 58.9421 10.9194L58.2931 12.8826H57.3221L55.9351 8.36157H57.0121L57.5451 10.5108C57.6741 11.0191 57.7801 11.5035 57.8651 11.9619H57.8841C57.9621 11.584 58.0911 11.1026 58.2731 10.5204L58.9421 8.36253H59.7961L60.4371 10.4744C60.5921 10.9894 60.7181 11.4852 60.8151 11.9629H60.8441C60.9151 11.4977 61.0221 11.0019 61.1641 10.4744L61.7361 8.36253H62.7651V8.36157Z" fill="white"/>
<path d="M68.198 12.8825H67.15V10.293C67.15 9.49504 66.834 9.09607 66.2 9.09607C65.889 9.09607 65.638 9.2054 65.443 9.42503C65.25 9.64466 65.152 9.9036 65.152 10.2V12.8815H64.104V9.65329C64.104 9.25624 64.091 8.82561 64.066 8.35951H64.987L65.036 9.06634H65.065C65.187 8.84671 65.369 8.66545 65.608 8.52063C65.892 8.35184 66.21 8.26648 66.558 8.26648C66.998 8.26648 67.364 8.40267 67.655 8.676C68.017 9.01071 68.198 9.51039 68.198 10.1741V12.8825Z" fill="white"/>
<path d="M71.088 12.8826H70.041V6.28711H71.088V12.8826Z" fill="white"/>
<path d="M77.2581 10.5845C77.2581 11.2798 77.0511 11.8495 76.6371 12.2964C76.2031 12.7558 75.6271 12.985 74.9101 12.985C74.2171 12.985 73.6661 12.7654 73.2561 12.3242C72.8461 11.884 72.6411 11.3287 72.6411 10.6593C72.6411 9.95916 72.8521 9.38468 73.2761 8.93871C73.7001 8.49275 74.2701 8.26929 74.9871 8.26929C75.6801 8.26929 76.2351 8.48891 76.6571 8.92912C77.0571 9.35687 77.2581 9.90929 77.2581 10.5845ZM76.1701 10.6171C76.1701 10.1999 76.0761 9.84215 75.8891 9.54388C75.6701 9.18328 75.3561 9.00297 74.9501 9.00297C74.5281 9.00297 74.2081 9.18328 73.9891 9.54388C73.8011 9.84215 73.7081 10.2056 73.7081 10.6353C73.7081 11.0525 73.8021 11.4102 73.9891 11.7085C74.2161 12.0691 74.5321 12.2494 74.9401 12.2494C75.3401 12.2494 75.6531 12.0662 75.8791 11.6989C76.0741 11.3949 76.1701 11.0343 76.1701 10.6171Z" fill="white"/>
<path d="M82.33 12.8824H81.389L81.311 12.3616H81.282C80.96 12.7769 80.501 12.985 79.905 12.985C79.46 12.985 79.1 12.8479 78.829 12.5755C78.583 12.3281 78.46 12.0202 78.46 11.6548C78.46 11.1024 78.7 10.6813 79.183 10.3898C79.665 10.0982 80.343 9.95532 81.216 9.96204V9.87764C81.216 9.28206 80.89 8.98475 80.237 8.98475C79.772 8.98475 79.362 9.09696 79.008 9.31946L78.795 8.65963C79.233 8.39972 79.774 8.26929 80.412 8.26929C81.644 8.26929 82.262 8.89268 82.262 10.1395V11.8044C82.262 12.2561 82.285 12.6158 82.33 12.8824ZM81.242 11.3287V10.6315C80.086 10.6123 79.508 10.9163 79.508 11.5426C79.508 11.7785 79.574 11.955 79.709 12.0729C79.844 12.1909 80.016 12.2494 80.221 12.2494C80.451 12.2494 80.666 12.1794 80.862 12.0403C81.059 11.9003 81.18 11.7229 81.225 11.5052C81.236 11.4563 81.242 11.3968 81.242 11.3287Z" fill="white"/>
<path d="M88.285 12.8826H87.355L87.306 12.1566H87.277C86.98 12.709 86.474 12.9852 85.763 12.9852C85.195 12.9852 84.722 12.7713 84.347 12.3436C83.972 11.9159 83.785 11.3606 83.785 10.6787C83.785 9.9469 83.988 9.3542 84.396 8.90152C84.791 8.47953 85.275 8.26854 85.851 8.26854C86.484 8.26854 86.927 8.47282 87.179 8.88234H87.199V6.28711H88.248V11.6646C88.248 12.1048 88.26 12.5105 88.285 12.8826ZM87.199 10.976V10.2222C87.199 10.0917 87.189 9.98622 87.17 9.90566C87.111 9.66398 86.984 9.46066 86.791 9.29666C86.596 9.13266 86.361 9.05018 86.09 9.05018C85.699 9.05018 85.393 9.19883 85.168 9.4971C84.945 9.79537 84.832 10.1761 84.832 10.6413C84.832 11.0882 84.939 11.4507 85.154 11.7298C85.381 12.0271 85.687 12.1758 86.07 12.1758C86.414 12.1758 86.689 12.0521 86.898 11.8037C87.1 11.5744 87.199 11.2982 87.199 10.976Z" fill="white"/>
<path d="M97.248 10.5845C97.248 11.2798 97.041 11.8495 96.627 12.2964C96.193 12.7558 95.619 12.985 94.9 12.985C94.209 12.985 93.658 12.7654 93.246 12.3242C92.836 11.884 92.631 11.3287 92.631 10.6593C92.631 9.95916 92.842 9.38468 93.266 8.93871C93.69 8.49275 94.26 8.26929 94.979 8.26929C95.67 8.26929 96.227 8.48891 96.647 8.92912C97.047 9.35687 97.248 9.90929 97.248 10.5845ZM96.162 10.6171C96.162 10.1999 96.068 9.84215 95.881 9.54388C95.66 9.18328 95.348 9.00297 94.94 9.00297C94.52 9.00297 94.2 9.18328 93.979 9.54388C93.791 9.84215 93.698 10.2056 93.698 10.6353C93.698 11.0525 93.792 11.4102 93.979 11.7085C94.206 12.0691 94.522 12.2494 94.93 12.2494C95.33 12.2494 95.645 12.0662 95.871 11.6989C96.064 11.3949 96.162 11.0343 96.162 10.6171Z" fill="white"/>
<path d="M102.883 12.8825H101.836V10.293C101.836 9.49504 101.52 9.09607 100.885 9.09607C100.574 9.09607 100.323 9.2054 100.129 9.42503C99.935 9.64466 99.838 9.9036 99.838 10.2V12.8815H98.789V9.65329C98.789 9.25624 98.777 8.82561 98.752 8.35951H99.672L99.721 9.06634H99.75C99.873 8.84671 100.055 8.66545 100.293 8.52063C100.578 8.35184 100.895 8.26648 101.244 8.26648C101.683 8.26648 102.049 8.40267 102.34 8.676C102.703 9.01071 102.883 9.51039 102.883 10.1741V12.8825Z" fill="white"/>
<path d="M109.936 9.11453H108.782V11.3108C108.782 11.869 108.987 12.1481 109.393 12.1481C109.581 12.1481 109.737 12.1327 109.86 12.1011L109.887 12.8635C109.68 12.9383 109.408 12.9757 109.073 12.9757C108.659 12.9757 108.337 12.8549 108.104 12.6132C107.87 12.3715 107.754 11.9649 107.754 11.3942V9.11453H107.065V8.36166H107.754V7.53303L108.781 7.23572V8.3607H109.935V9.11453H109.936Z" fill="white"/>
<path d="M115.484 12.8826H114.435V10.3123C114.435 9.5019 114.119 9.09621 113.486 9.09621C113 9.09621 112.668 9.33118 112.486 9.80113C112.455 9.89991 112.437 10.0208 112.437 10.1627V12.8816H111.39V6.28711H112.437V9.01181H112.457C112.787 8.51598 113.26 8.26854 113.873 8.26854C114.307 8.26854 114.666 8.40473 114.951 8.67806C115.306 9.01853 115.484 9.52491 115.484 10.1943V12.8826Z" fill="white"/>
<path d="M121.207 10.408C121.207 10.5883 121.193 10.7398 121.168 10.8635H118.025C118.039 11.3104 118.189 11.6509 118.48 11.8868C118.746 12.0978 119.089 12.2033 119.509 12.2033C119.974 12.2033 120.398 12.1324 120.78 11.9895L120.944 12.6877C120.497 12.8737 119.971 12.9668 119.362 12.9668C118.632 12.9668 118.057 12.7606 117.641 12.3482C117.223 11.9358 117.016 11.3824 117.016 10.688C117.016 10.0061 117.209 9.43835 117.598 8.98567C118.004 8.5023 118.553 8.26062 119.246 8.26062C119.924 8.26062 120.439 8.5023 120.787 8.98567C121.068 9.3693 121.207 9.84404 121.207 10.408ZM120.207 10.1481C120.215 9.84979 120.146 9.59276 120.004 9.37601C119.822 9.09693 119.545 8.9569 119.17 8.9569C118.828 8.9569 118.549 9.09309 118.336 9.36642C118.162 9.58413 118.059 9.84404 118.025 10.1481H120.207Z" fill="white"/>
<path d="M53.645 30.215H51.374L50.13 26.466H45.806L44.621 30.215H42.41L46.694 17.4518H49.34L53.645 30.215ZM49.755 24.8932L48.63 21.5604C48.511 21.22 48.288 20.4182 47.959 19.156H47.919C47.788 19.6989 47.577 20.5007 47.287 21.5604L46.182 24.8932H49.755Z" fill="white"/>
<path d="M64.662 25.5004C64.662 27.0656 64.221 28.3027 63.339 29.211C62.549 30.0195 61.568 30.4232 60.397 30.4232C59.133 30.4232 58.225 29.9878 57.672 29.117H57.632V33.9651H55.5V24.0416C55.5 23.0576 55.473 22.0477 55.421 21.0119H57.296L57.415 22.4707H57.455C58.166 21.3716 59.245 20.823 60.693 20.823C61.825 20.823 62.77 21.2517 63.526 22.1101C64.284 22.9694 64.662 24.0992 64.662 25.5004ZM62.49 25.5752C62.49 24.6794 62.28 23.9409 61.858 23.3597C61.397 22.7536 60.778 22.4505 60.002 22.4505C59.476 22.4505 58.998 22.6193 58.571 22.9521C58.143 23.2878 57.863 23.7261 57.732 24.2689C57.666 24.5221 57.633 24.7293 57.633 24.8923V26.4268C57.633 27.0962 57.847 27.6611 58.275 28.1224C58.703 28.5838 59.259 28.8139 59.943 28.8139C60.746 28.8139 61.371 28.5166 61.818 27.9239C62.266 27.3303 62.49 26.5477 62.49 25.5752Z" fill="white"/>
<path d="M75.699 25.5004C75.699 27.0656 75.258 28.3027 74.375 29.211C73.586 30.0195 72.605 30.4232 71.434 30.4232C70.17 30.4232 69.262 29.9878 68.71 29.117H68.67V33.9651H66.538V24.0416C66.538 23.0576 66.511 22.0477 66.459 21.0119H68.334L68.453 22.4707H68.493C69.203 21.3716 70.282 20.823 71.731 20.823C72.862 20.823 73.807 21.2517 74.565 22.1101C75.32 22.9694 75.699 24.0992 75.699 25.5004ZM73.527 25.5752C73.527 24.6794 73.316 23.9409 72.894 23.3597C72.433 22.7536 71.816 22.4505 71.039 22.4505C70.512 22.4505 70.035 22.6193 69.607 22.9521C69.179 23.2878 68.9 23.7261 68.769 24.2689C68.704 24.5221 68.67 24.7293 68.67 24.8923V26.4268C68.67 27.0962 68.884 27.6611 69.31 28.1224C69.738 28.5828 70.294 28.8139 70.98 28.8139C71.783 28.8139 72.408 28.5166 72.855 27.9239C73.303 27.3303 73.527 26.5477 73.527 25.5752Z" fill="white"/>
<path d="M88.039 26.6359C88.039 27.7216 87.646 28.6049 86.857 29.2868C85.99 30.032 84.783 30.4041 83.232 30.4041C81.8 30.4041 80.652 30.1394 79.783 29.609L80.277 27.9048C81.213 28.4476 82.24 28.72 83.359 28.72C84.162 28.72 84.787 28.5454 85.236 28.1982C85.683 27.8511 85.906 27.385 85.906 26.8038C85.906 26.2859 85.722 25.8495 85.353 25.4956C84.986 25.1417 84.373 24.8127 83.517 24.5087C81.187 23.6753 80.023 22.4544 80.023 20.8489C80.023 19.7997 80.431 18.9394 81.248 18.27C82.062 17.5996 83.148 17.2649 84.506 17.2649C85.717 17.2649 86.723 17.4673 87.526 17.871L86.993 19.5379C86.243 19.1466 85.395 18.9509 84.446 18.9509C83.696 18.9509 83.11 19.1284 82.69 19.4813C82.335 19.7968 82.157 20.1814 82.157 20.637C82.157 21.1414 82.36 21.5586 82.768 21.8866C83.123 22.1897 83.768 22.5177 84.704 22.8716C85.849 23.3137 86.69 23.8307 87.231 24.4234C87.77 25.0141 88.039 25.7536 88.039 26.6359Z" fill="white"/>
<path d="M95.088 22.5464H92.738V27.0147C92.738 28.1512 93.152 28.7189 93.982 28.7189C94.363 28.7189 94.679 28.6873 94.929 28.624L94.988 30.1767C94.568 30.3273 94.015 30.403 93.33 30.403C92.488 30.403 91.83 30.1566 91.355 29.6646C90.882 29.1716 90.644 28.3449 90.644 27.1835V22.5445H89.244V21.01H90.644V19.3249L92.738 18.7188V21.01H95.088V22.5464Z" fill="white"/>
<path d="M105.691 25.5378C105.691 26.9524 105.269 28.1138 104.427 29.0221C103.544 29.9572 102.372 30.4233 100.911 30.4233C99.5031 30.4233 98.382 29.9754 97.546 29.0796C96.7101 28.1838 96.2921 27.0531 96.2921 25.6903C96.2921 24.2641 96.7221 23.096 97.5851 22.1878C98.4461 21.2786 99.6081 20.824 101.069 20.824C102.477 20.824 103.61 21.2719 104.465 22.1686C105.283 23.0385 105.691 24.1615 105.691 25.5378ZM103.479 25.604C103.479 24.7552 103.29 24.0273 102.907 23.4202C102.46 22.6855 101.821 22.3192 100.993 22.3192C100.136 22.3192 99.4851 22.6865 99.0381 23.4202C98.6551 24.0282 98.4661 24.7677 98.4661 25.6423C98.4661 26.4911 98.6551 27.219 99.0381 27.8252C99.4991 28.5598 100.143 28.9262 100.974 28.9262C101.788 28.9262 102.427 28.5521 102.888 27.806C103.281 27.1874 103.479 26.4518 103.479 25.604Z" fill="white"/>
<path d="M112.621 22.8102C112.41 22.7728 112.185 22.7536 111.949 22.7536C111.199 22.7536 110.619 23.025 110.211 23.5688C109.856 24.0483 109.678 24.6545 109.678 25.3862V30.2151H107.547L107.567 23.9102C107.567 22.8495 107.54 21.8837 107.487 21.0129H109.344L109.422 22.7737H109.481C109.706 22.1686 110.061 21.6814 110.547 21.316C111.022 20.987 111.535 20.823 112.088 20.823C112.285 20.823 112.463 20.8364 112.621 20.8604V22.8102Z" fill="white"/>
<path d="M122.156 25.178C122.156 25.5444 122.131 25.8532 122.078 26.1055H115.682C115.707 27.0147 116.016 27.71 116.61 28.1895C117.149 28.6182 117.846 28.833 118.702 28.833C119.649 28.833 120.513 28.6882 121.29 28.3976L121.624 29.817C120.716 30.1968 119.644 30.3858 118.407 30.3858C116.919 30.3858 115.751 29.9657 114.901 29.1265C114.053 28.2873 113.628 27.1604 113.628 25.7468C113.628 24.359 114.023 23.2033 114.814 22.2817C115.642 21.2977 116.761 20.8057 118.169 20.8057C119.552 20.8057 120.599 21.2977 121.31 22.2817C121.873 23.0633 122.156 24.03 122.156 25.178ZM120.123 24.6477C120.137 24.0415 119.998 23.5179 119.709 23.0758C119.34 22.507 118.773 22.2232 118.01 22.2232C117.313 22.2232 116.746 22.5003 116.313 23.0566C115.958 23.4987 115.747 24.0291 115.682 24.6467H120.123V24.6477Z" fill="white"/>
</svg>
