<svg fill="none" height="100%" width="100%" viewBox="0 0 758 688" xmlns:xlink="http://www.w3.org/1999/xlink" xmlns="http://www.w3.org/2000/svg"><g transform="matrix(1,0,0,1,-360,-236)" display="none" id="i0"><animate repeatCount="indefinite" begin="0s" calcMode="discrete" dur="1.167s" values="none; inline; inline; inline" keyTimes="0; 0.033939; 0.964286; 1" attributeName="display" /><g id="i1" transform="matrix(1,0,0,1,627.93,552.384)"><path fill="#ad752f" d="M-154.595,223.894C-154.595,223.894,154.971,164.797,154.971,164.797C154.971,164.797,151.713,-223.894,151.713,-223.894C151.713,-223.894,-154.971,-129.483,-154.971,-129.483C-154.971,-129.483,-154.595,223.894,-154.595,223.894Z" /></g><g id="i2" transform="matrix(1,0,0,1,588.517,649.487)"><path fill="#d69340" d="M115.588,226.619C115.588,226.619,-115.587,126.895,-115.587,126.895C-115.587,126.895,-115.587,-226.619,-115.587,-226.619C-115.587,-226.619,115.588,-130.389,115.588,-130.389C115.588,-130.389,115.588,226.619,115.588,226.619Z" /></g><g id="i3" transform="matrix(1,0,0,1,895.874,552.538)"><path fill="#bd8239" d="M116.422,223.855C116.422,223.855,-115.908,126.252,-115.908,126.252C-115.908,126.252,-116.422,-223.855,-116.422,-223.855C-116.422,-223.855,116.422,-129.675,116.422,-129.675C116.422,-129.675,116.422,223.855,116.422,223.855Z" /></g><g id="i4" transform="matrix(1,0,0,1,858.198,649.487)"><path fill="#d69340" d="M-154.127,226.619C-154.127,226.619,154.127,126.895,154.127,126.895C154.127,126.895,154.127,-226.619,154.127,-226.619C154.127,-226.619,-154.127,-130.389,-154.127,-130.389C-154.127,-130.389,-154.127,226.619,-154.127,226.619Z" /></g><g id="i5" transform="matrix(1,0,0,1,893.561,756.8)"><path fill="#000000" d="M-29.982,-20.245C-29.982,-20.245,-29.982,39.728,-29.982,39.728C-29.982,39.728,29.982,20.243,29.982,20.243C29.982,20.243,29.982,-39.728,29.982,-39.728C29.982,-39.728,-29.982,-20.245,-29.982,-20.245ZM26.314,17.761C26.314,17.761,-26.316,34.862,-26.316,34.862C-26.316,34.862,-26.316,-17.76,-26.316,-17.76C-26.316,-17.76,26.314,-34.861,26.314,-34.861C26.314,-34.861,26.314,17.761,26.314,17.761Z" /></g><g id="i6" transform="matrix(1,0,0,1,885.372,756.861)"><path fill="#000000" d="M6.49,-8.084C6.49,-8.084,3.242,-11.196,3.242,-11.196C3.242,-11.196,-0.015,-14.303,-0.015,-14.303C-0.015,-14.303,-3.25,-9.087,-3.25,-9.087C-3.25,-9.087,-6.49,-3.866,-6.49,-3.866C-6.49,-3.866,-2.315,-5.224,-2.315,-5.224C-2.315,-5.224,-2.315,14.303,-2.315,14.303C-2.315,14.303,2.288,12.808,2.288,12.808C2.288,12.808,2.288,-6.719,2.288,-6.719C2.288,-6.719,6.49,-8.084,6.49,-8.084Z" /></g><g id="i7" transform="matrix(1,0,0,1,901.749,751.536)"><path fill="#000000" d="M6.489,-8.08C6.489,-8.08,3.241,-11.191,3.241,-11.191C3.241,-11.191,0.001,-14.304,0.001,-14.304C0.001,-14.304,-3.253,-9.082,-3.253,-9.082C-3.253,-9.082,-6.489,-3.862,-6.489,-3.862C-6.489,-3.862,-2.3,-5.223,-2.3,-5.223C-2.3,-5.223,-2.3,14.304,-2.3,14.304C-2.3,14.304,2.305,12.807,2.305,12.807C2.305,12.807,2.305,-6.719,2.305,-6.719C2.305,-6.719,6.489,-8.08,6.489,-8.08Z" /></g><g id="i8" transform="matrix(1,0,0,1,893.569,772.508)"><path fill="#000000" d="M-12.44,2.837C-12.44,2.837,-12.44,5.248,-12.44,5.248C-12.44,5.248,12.44,-2.835,12.44,-2.835C12.44,-2.835,12.44,-5.248,12.44,-5.248C12.44,-5.248,-12.44,2.837,-12.44,2.837Z" /></g><g id="i9" transform="matrix(1,0,0,1,963.605,734.042)"><path fill="#000000" d="M-29.998,-20.24C-29.998,-20.24,-29.998,39.733,-29.998,39.733C-29.998,39.733,29.998,20.238,29.998,20.238C29.998,20.238,29.998,-39.733,29.998,-39.733C29.998,-39.733,-29.998,-20.24,-29.998,-20.24ZM26.323,17.758C26.323,17.758,-26.323,34.863,-26.323,34.863C-26.323,34.863,-26.323,-17.76,-26.323,-17.76C-26.323,-17.76,26.323,-34.864,26.323,-34.864C26.323,-34.864,26.323,17.758,26.323,17.758Z" /></g><g id="i10" transform="matrix(1,0,0,1,965.781,737.73)"><path fill="#000000" d="M1.646,10.417C1.538,10.381,1.388,10.404,1.229,10.454C0.864,10.574,0.529,10.896,0.375,11.296C0.235,11.62,0.213,11.854,0.192,12.006C0.157,12.167,0.157,12.218,0.085,12.355C0.085,12.371,0.017,12.405,-0.081,12.437C-0.286,12.505,-0.379,12.357,-0.4,12.018C-0.4,12.018,-0.4,-14.836,-0.4,-14.836C-0.4,-14.836,-2.329,-14.21,-2.329,-14.21C-2.329,-14.21,-2.329,12.746,-2.329,12.746C-2.329,12.746,-2.329,12.752,-2.329,12.752C-2.286,14.13,-1.467,14.836,-0.301,14.485C-0.243,14.468,-0.195,14.452,-0.131,14.432C0.224,14.315,0.542,14.174,0.837,13.975C1.092,13.792,1.331,13.567,1.509,13.304C1.891,12.791,2.098,12.199,2.246,11.339C2.33,10.848,2.081,10.477,1.646,10.417Z" /></g><g id="i11" transform="matrix(1,0,0,1,964.193,723.171)"><path fill="#000000" d="M14.053,1.055C14.038,0.557,14.038,0.068,13.967,-0.38C13.907,-0.932,13.806,-1.488,13.694,-2.002C13.562,-2.531,13.385,-3.051,13.207,-3.536C13.207,-3.536,13.207,-3.545,13.187,-3.538C13.04,-3.985,12.861,-4.38,12.644,-4.739C12.47,-5.034,12.307,-5.351,12.127,-5.637C11.843,-6.011,11.576,-6.392,11.264,-6.716C10.877,-7.17,10.432,-7.547,9.97,-7.894C9.867,-7.978,9.744,-8.053,9.652,-8.124C7.268,-9.725,4.329,-10.166,1.091,-9.388C0.912,-9.922,0.392,-10.188,-0.21,-9.993C-0.838,-9.789,-1.374,-9.178,-1.524,-8.528C-3.816,-7.539,-5.991,-6.009,-7.888,-4.037C-7.924,-4.017,-7.966,-3.959,-8.013,-3.922C-8.734,-3.178,-9.406,-2.341,-10.028,-1.481C-12.337,1.748,-13.759,5.565,-14.04,9.256C-14.053,9.44,-14.053,9.826,-14.053,10.188C-14.053,10.188,14.053,1.055,14.053,1.055Z" /></g></g><g transform="matrix(1,0,0,1,440,364)" display="inline" id="i12"><animate repeatCount="indefinite" begin="0s" calcMode="discrete" dur="1.167s" values="inline; none; none; none" keyTimes="0; 0.28401; 0.964286; 1" attributeName="display" /><g id="i13" transform="matrix(1,0,0,1,0,0)"><path fill="#e6a453" d="M93,-225C93,-225,-227.5,-135.5,-227.5,-135.5C-227.5,-135.5,-96,-80,-96,-80C-96,-80,215,-176,215,-176C215,-176,93,-225,93,-225Z" /></g></g><g transform="matrix(1,0,0,1,440,364)" display="none" id="i14"><animate repeatCount="indefinite" begin="0s" calcMode="discrete" dur="1.167s" values="none; inline; none; none; none" keyTimes="0; 0.033939; 0.28401; 0.964286; 1" attributeName="display" /><g id="i13"><path fill="#eeaa56" d="M-20.5,-272C-20.5,-272,-327.5,-178,-327.5,-178C-327.5,-178,-227,-135.5,-227,-135.5C-227,-135.5,95,-225,95,-225C95,-225,-20.5,-272,-20.5,-272Z" /></g></g><g transform="matrix(1,0,0,1,440,364)" opacity="0.25" display="none" id="i15"><animate repeatCount="indefinite" begin="0s" calcMode="discrete" dur="1.167s" values="none; inline; inline; inline" keyTimes="0; 0.28401; 0.964286; 1" attributeName="display" /><g id="i13"><path fill="#333332" d="M-96,-81C-96,-81,-327,-5,-327,-5C-327,-5,-173,124,-173,124C-173,124,-96,-81,-96,-81Z"><animate repeatCount="indefinite" attributeName="d" dur="1.167s" begin="0s" calcMode="spline" values="M-96,-81C-96,-81,-327,-5,-327,-5C-327,-5,-173,124,-173,124C-173,124,-96,-81,-96,-81Z; M-96,-81C-96,-81,-327,-5,-327,-5C-327,-5,-173,124,-173,124C-173,124,-96,-81,-96,-81Z; M-96,-81C-96,-81,-327,-5,-327,-5C-327,-5,-174,111,-174,111C-174,111,-96,-81,-96,-81Z; M-96,-81C-96,-81,-327,-5,-327,-5C-327,-5,-173,124,-173,124C-173,124,-96,-81,-96,-81Z; M-96,-81C-96,-81,-327,-5,-327,-5C-327,-5,-173,124,-173,124C-173,124,-96,-81,-96,-81Z" keyTimes="0; 0.285714; 0.321429; 0.357143; 1" keySplines="0 0 1 1; 0 0 1 1; 0 0 1 1; 0 0 1 1" fill="freeze" /></path></g></g><g transform="matrix(1,0,0,1,708,345)" opacity="0.25" display="none" id="i16"><animate repeatCount="indefinite" begin="0s" calcMode="discrete" dur="1.167s" values="none; inline; inline; inline" keyTimes="0; 0.534082; 0.964286; 1" attributeName="display" /><g id="i13"><path fill="#333332" d="M-51,18C-51,18,-364,-61.5,-364,-61.5C-364,-61.5,-276.5,156,-276.5,156C-276.5,156,-51,18,-51,18Z"><animate repeatCount="indefinite" attributeName="d" dur="1.167s" begin="0s" calcMode="spline" values="M-51,18C-51,18,-364,-61.5,-364,-61.5C-364,-61.5,-276.5,156,-276.5,156C-276.5,156,-51,18,-51,18Z; M-51,18C-51,18,-364,-61.5,-364,-61.5C-364,-61.5,-276.5,156,-276.5,156C-276.5,156,-51,18,-51,18Z; M-51,18C-51,18,-364,-61.5,-364,-61.5C-364,-61.5,-274.5,144,-274.5,144C-274.5,144,-51,18,-51,18Z; M-51,18C-51,18,-364,-61.5,-364,-61.5C-364,-61.5,-276.5,156,-276.5,156C-276.5,156,-51,18,-51,18Z; M-51,18C-51,18,-364,-61.5,-364,-61.5C-364,-61.5,-276.5,156,-276.5,156C-276.5,156,-51,18,-51,18Z" keyTimes="0; 0.535714; 0.571429; 0.607143; 1" keySplines="0 0 1 1; 0 0 1 1; 0 0 1 1; 0 0 1 1" fill="freeze" /></path></g></g><g transform="matrix(1,0,0,1,440,365)" display="none" id="i17"><animate repeatCount="indefinite" begin="0s" calcMode="discrete" dur="1.167s" values="none; inline; inline; inline" keyTimes="0; 0.033939; 0.964286; 1" attributeName="display" /><g id="i13"><path fill="#edc28e" d="M-328.5,-178C-328.5,-178,-184.5,-222,-184.5,-222C-184.5,-222,50,-125,50,-125C50,-125,-96.5,-81.5,-96.5,-81.5C-96.5,-81.5,-328.5,-178,-328.5,-178Z"><animate repeatCount="indefinite" attributeName="d" dur="1.167s" begin="0s" calcMode="spline" values="M-328.5,-178C-328.5,-178,-184.5,-222,-184.5,-222C-184.5,-222,50,-125,50,-125C50,-125,-96.5,-81.5,-96.5,-81.5C-96.5,-81.5,-328.5,-178,-328.5,-178Z; M-328.5,-178C-328.5,-178,-184.5,-222,-184.5,-222C-184.5,-222,50,-125,50,-125C50,-125,-96.5,-81.5,-96.5,-81.5C-96.5,-81.5,-328.5,-178,-328.5,-178Z; M-327,-178C-327,-178,-218.15,-307.25,-218.15,-307.25C-218.15,-307.25,68.75,-213.75,68.75,-213.75C68.75,-213.75,-95.45,-79.75,-95.45,-79.75C-95.45,-79.75,-327,-178,-327,-178Z; M-327,-178C-327,-178,-287.49,-320.55,-287.49,-320.55C-287.49,-320.55,-23.75,-247.65,-23.75,-247.65C-23.75,-247.65,-95.27,-79.45,-95.27,-79.45C-95.27,-79.45,-327,-178,-327,-178Z; M-327,-178C-327,-178,-396.5,-300.5,-396.5,-300.5C-396.5,-300.5,-172.5,-233.5,-172.5,-233.5C-172.5,-233.5,-95,-79,-95,-79C-95,-79,-327,-178,-327,-178Z; M-327,-178C-327,-178,-422,-52,-422,-52C-422,-52,-178,67,-178,67C-178,67,-95,-83,-95,-83C-95,-83,-327,-178,-327,-178Z; M-327,-178C-327,-178,-426,-76,-426,-76C-426,-76,-182,43,-182,43C-182,43,-95,-83,-95,-83C-95,-83,-327,-178,-327,-178Z; M-327,-178C-327,-178,-422,-52,-422,-52C-422,-52,-178,67,-178,67C-178,67,-95,-83,-95,-83C-95,-83,-327,-178,-327,-178Z; M-327,-178C-327,-178,-422,-52,-422,-52C-422,-52,-178,67,-178,67C-178,67,-95,-83,-95,-83C-95,-83,-327,-178,-327,-178Z" keyTimes="0; 0.035714; 0.142857; 0.214286; 0.25; 0.285714; 0.321429; 0.357143; 1" keySplines="0 0 1 1; 0 0 1 1; 0 0 1 1; 0 0 1 1; 0 0 1 1; 0 0 1 1; 0 0 1 1; 0 0 1 1" fill="freeze" /></path></g></g><g transform="matrix(1,0,0,1,440,364)" display="none" id="i18"><animate repeatCount="indefinite" begin="0s" calcMode="discrete" dur="1.167s" values="none; inline; inline; inline" keyTimes="0; 0.033939; 0.964286; 1" attributeName="display" /><g id="i13" transform="matrix(1,0,0,1,-0.438,-0.469)"><path fill="#e8b06d" d="M-185,-220.5C-185,-220.5,-20.5,-271.25,-20.5,-271.25C-20.5,-271.25,213,-176.75,213,-176.75C213,-176.75,50,-123,50,-123C50,-123,-185,-220.5,-185,-220.5Z"><animate repeatCount="indefinite" attributeName="d" dur="1.167s" begin="0s" calcMode="spline" values="M-185,-220.5C-185,-220.5,-20.5,-271.25,-20.5,-271.25C-20.5,-271.25,213,-176.75,213,-176.75C213,-176.75,50,-123,50,-123C50,-123,-185,-220.5,-185,-220.5Z; M-185,-220.5C-185,-220.5,-20.5,-271.25,-20.5,-271.25C-20.5,-271.25,213,-176.75,213,-176.75C213,-176.75,50,-123,50,-123C50,-123,-185,-220.5,-185,-220.5Z; M-147.857,-323.429C-147.857,-323.429,-21.143,-271.143,-21.143,-271.143C-21.143,-271.143,212.571,-176.857,212.571,-176.857C212.571,-176.857,83.857,-249.714,83.857,-249.714C83.857,-249.714,-147.857,-323.429,-147.857,-323.429Z; M28.071,-368.714C28.071,-368.714,-21.571,-271.071,-21.571,-271.071C-21.571,-271.071,212.286,-176.929,212.286,-176.929C212.286,-176.929,317.929,-295.357,317.929,-295.357C317.929,-295.357,28.071,-368.714,28.071,-368.714Z; M128,-231C128,-231,-22,-271,-22,-271C-22,-271,212,-177,212,-177C212,-177,288,-159,288,-159C288,-159,128,-231,128,-231Z; M127,-250C127,-250,-22,-271,-22,-271C-22,-271,212,-177,212,-177C212,-177,287,-178,287,-178C287,-178,127,-250,127,-250Z; M128,-231C128,-231,-22,-271,-22,-271C-22,-271,212,-177,212,-177C212,-177,288,-159,288,-159C288,-159,128,-231,128,-231Z; M128,-231C128,-231,-22,-271,-22,-271C-22,-271,212,-177,212,-177C212,-177,288,-159,288,-159C288,-159,128,-231,128,-231Z" keyTimes="0; 0.035714; 0.142857; 0.214286; 0.285714; 0.321429; 0.357143; 1" keySplines="0 0 1 1; 0 0 1 1; 0 0 1 1; 0 0 1 1; 0 0 1 1; 0 0 1 1; 0 0 1 1" fill="freeze" /></path></g></g><g transform="matrix(1,0,0,1,424.75,372.615)" display="none" id="i19"><animate repeatCount="indefinite" begin="0s" calcMode="discrete" dur="1.167s" values="none; inline; inline; inline" keyTimes="0; 0.28401; 0.964286; 1" attributeName="display" /><g id="i13"><path fill="#eeaa56" d="M-20.5,-272C-20.5,-272,-327.5,-178,-327.5,-178C-327.5,-178,-227,-135.5,-227,-135.5C-227,-135.5,95,-225,95,-225C95,-225,-20.5,-272,-20.5,-272Z"><animate repeatCount="indefinite" attributeName="d" dur="1.167s" begin="0s" calcMode="spline" values="M-20.5,-272C-20.5,-272,-327.5,-178,-327.5,-178C-327.5,-178,-227,-135.5,-227,-135.5C-227,-135.5,95,-225,95,-225C95,-225,-20.5,-272,-20.5,-272Z; M-20.5,-272C-20.5,-272,-327.5,-178,-327.5,-178C-327.5,-178,-227,-135.5,-227,-135.5C-227,-135.5,95,-225,95,-225C95,-225,-20.5,-272,-20.5,-272Z; M-21.167,-271C-21.167,-271,-326.5,-177.333,-326.5,-177.333C-326.5,-177.333,-223.333,-198.167,-223.333,-198.167C-223.333,-198.167,93.667,-299.667,93.667,-299.667C93.667,-299.667,-21.167,-271,-21.167,-271Z; M-21.5,-270.5C-21.5,-270.5,-326,-177,-326,-177C-326,-177,-229,-247.5,-229,-247.5C-229,-247.5,93,-337,93,-337C93,-337,-21.5,-270.5,-21.5,-270.5Z; M-20.5,-271C-20.5,-271,-327,-176,-327,-176C-327,-176,-388.5,-200.5,-388.5,-200.5C-388.5,-200.5,-66.5,-290,-66.5,-290C-66.5,-290,-20.5,-271,-20.5,-271Z; M-20,-271C-20,-271,-327,-176,-327,-176C-327,-176,-406,-185.5,-406,-185.5C-406,-185.5,-84,-275,-84,-275C-84,-275,-20,-271,-20,-271Z; M-20,-270.75C-20,-270.75,-325.25,-177,-325.25,-177C-325.25,-177,-387,-168.5,-387,-168.5C-387,-168.5,-87.25,-259.75,-87.25,-259.75C-87.25,-259.75,-20,-270.75,-20,-270.75Z; M-20,-270.75C-20,-270.75,-325.25,-177,-325.25,-177C-325.25,-177,-387,-171.5,-387,-171.5C-387,-171.5,-87.25,-262.75,-87.25,-262.75C-87.25,-262.75,-20,-270.75,-20,-270.75Z; M-20,-270.75C-20,-270.75,-325.25,-177,-325.25,-177C-325.25,-177,-387,-168.5,-387,-168.5C-387,-168.5,-87.25,-259.75,-87.25,-259.75C-87.25,-259.75,-20,-270.75,-20,-270.75Z; M-20,-270.75C-20,-270.75,-325.25,-177,-325.25,-177C-325.25,-177,-387,-168.5,-387,-168.5C-387,-168.5,-87.25,-259.75,-87.25,-259.75C-87.25,-259.75,-20,-270.75,-20,-270.75Z" keyTimes="0; 0.285714; 0.357143; 0.392857; 0.428571; 0.464286; 0.535714; 0.571429; 0.607143; 1" keySplines="0 0 1 1; 0 0 1 1; 0 0 1 1; 0 0 1 1; 0 0 1 1; 0 0 1 1; 0 0 1 1; 0 0 1 1; 0 0 1 1" fill="freeze" /></path></g></g><g transform="matrix(1,0,0,1,435.692,364)" display="none" id="i20"><animate repeatCount="indefinite" begin="0s" calcMode="discrete" dur="1.167s" values="none; inline; inline; inline" keyTimes="0; 0.28401; 0.964286; 1" attributeName="display" /><g id="i13" transform="matrix(1,0,0,1,0,0)"><path fill="#edb46f" d="M93,-225C93,-225,-227.5,-135.5,-227.5,-135.5C-227.5,-135.5,-96,-80,-96,-80C-96,-80,215,-176,215,-176C215,-176,93,-225,93,-225Z"><animate repeatCount="indefinite" attributeName="d" dur="1.167s" begin="0s" calcMode="spline" values="M93,-225C93,-225,-227.5,-135.5,-227.5,-135.5C-227.5,-135.5,-96,-80,-96,-80C-96,-80,215,-176,215,-176C215,-176,93,-225,93,-225Z; M93,-225C93,-225,-227.5,-135.5,-227.5,-135.5C-227.5,-135.5,-96,-80,-96,-80C-96,-80,215,-176,215,-176C215,-176,93,-225,93,-225Z; M138,-322C138,-322,-182.5,-232.5,-182.5,-232.5C-182.5,-232.5,-96,-80,-96,-80C-96,-80,213.75,-176.5,213.75,-176.5C213.75,-176.5,138,-322,138,-322Z; M346.2,-103C346.2,-103,43.7,39.5,43.7,39.5C43.7,39.5,-96,-80,-96,-80C-96,-80,213,-176.8,213,-176.8C213,-176.8,346.2,-103,346.2,-103Z; M302,-28C302,-28,-6.5,94.5,-6.5,94.5C-6.5,94.5,-96,-80,-96,-80C-96,-80,212.5,-177,212.5,-177C212.5,-177,302,-28,302,-28Z; M309,-40C309,-40,0.5,82.5,0.5,82.5C0.5,82.5,-96,-80,-96,-80C-96,-80,212.5,-177,212.5,-177C212.5,-177,309,-40,309,-40Z; M302,-28C302,-28,-6.5,94.5,-6.5,94.5C-6.5,94.5,-96,-80,-96,-80C-96,-80,212.5,-177,212.5,-177C212.5,-177,302,-28,302,-28Z; M302,-28C302,-28,-6.5,94.5,-6.5,94.5C-6.5,94.5,-96,-80,-96,-80C-96,-80,212.5,-177,212.5,-177C212.5,-177,302,-28,302,-28Z" keyTimes="0; 0.285714; 0.392857; 0.464286; 0.535714; 0.571429; 0.607143; 1" keySplines="0 0 1 1; 0 0 1 1; 0 0 1 1; 0 0 1 1; 0 0 1 1; 0 0 1 1; 0 0 1 1" fill="freeze" /></path></g></g></svg>