<svg width="138" height="40" viewBox="0 0 138 40" fill="none" xmlns="http://www.w3.org/2000/svg">
<path d="M132.889 39.2151H5.11111C2.30128 39.2151 0 37.008 0 34.3132V4.90189C0 2.20708 2.30128 0 5.11111 0H132.889C135.699 0 138 2.20708 138 4.90189V34.3132C138 37.008 135.699 39.2151 132.889 39.2151Z" fill="#2B2B2B"/>
<path d="M132.889 0.785527C135.255 0.785527 137.181 2.63232 137.181 4.90189V34.3132C137.181 36.5828 135.255 38.4296 132.889 38.4296H5.11111C2.74467 38.4296 0.819055 36.5828 0.819055 34.3132V4.90189C0.819055 2.63232 2.74467 0.785527 5.11111 0.785527H132.889ZM132.889 0H5.11111C2.30128 0 0 2.20708 0 4.90189V34.3132C0 37.008 2.30128 39.2151 5.11111 39.2151H132.889C135.699 39.2151 138 37.008 138 34.3132V4.90189C138 2.20708 135.699 0 132.889 0Z" fill="#A6A6A6"/>
<path d="M9.90014 7.39087C9.59986 7.69233 9.42609 8.16169 9.42609 8.76952V30.4506C9.42609 31.0584 9.59986 31.5278 9.90014 31.8292L9.97425 31.8954L22.6421 19.751V19.4642L9.97425 7.31979L9.90014 7.39087Z" fill="white"/>
<path d="M28.3934 23.8015L24.1754 19.7514V19.4646L28.3985 15.4144L28.4931 15.4671L33.4943 18.1962C34.9216 18.9707 34.9216 20.2452 33.4943 21.0246L28.4931 23.7488L28.3934 23.8015Z" fill="white"/>
<path d="M27.7264 24.5026L23.4088 20.3618L10.6668 32.5834C11.1409 33.0613 11.9139 33.1189 12.7931 32.641L27.7264 24.5026Z" fill="white"/>
<path d="M27.7264 14.7132L12.7931 6.5748C11.9139 6.10177 11.1409 6.15936 10.6668 6.6373L23.4088 18.854L27.7264 14.7132Z" fill="white"/>
<path d="M48.4712 10.0432C48.4712 10.8618 48.2156 11.5174 47.7122 12.0064C47.1333 12.586 46.3794 12.8777 45.4556 12.8777C44.5727 12.8777 43.8188 12.5811 43.2003 11.9966C42.5806 11.4035 42.2714 10.6755 42.2714 9.80422C42.2714 8.93291 42.5806 8.20498 43.2003 7.61676C43.8188 7.0273 44.5727 6.73074 45.4556 6.73074C45.8952 6.73074 46.3143 6.81775 46.7142 6.97951C47.1129 7.1425 47.4374 7.36308 47.6726 7.63514L47.1384 8.15229C46.7283 7.68783 46.1699 7.45867 45.4556 7.45867C44.8116 7.45867 44.2532 7.67435 43.7792 8.1094C43.3102 8.54566 43.0751 9.11061 43.0751 9.80422C43.0751 10.4978 43.3102 11.0677 43.7792 11.504C44.2532 11.9341 44.8116 12.1547 45.4556 12.1547C46.1392 12.1547 46.7142 11.9341 47.1678 11.4991C47.4668 11.2111 47.6368 10.814 47.6815 10.3067H45.4556V9.59834H48.4252C48.4609 9.75153 48.4712 9.89981 48.4712 10.0432Z" fill="white" stroke="white" stroke-width="0.0408889" stroke-miterlimit="10"/>
<path d="M53.1823 7.58731H50.3929V9.45002H52.9075V10.1583H50.3929V12.0211H53.1823V12.7429H49.6032V6.8655H53.1823V7.58731Z" fill="white" stroke="white" stroke-width="0.0408889" stroke-miterlimit="10"/>
<path d="M56.5071 12.7429H55.7174V7.58731H54.0065V6.8655H58.2193V7.58731H56.5071V12.7429Z" fill="white" stroke="white" stroke-width="0.0408889" stroke-miterlimit="10"/>
<path d="M61.2682 12.7429V6.8655H62.0566V12.7429H61.2682Z" fill="white" stroke="white" stroke-width="0.0408889" stroke-miterlimit="10"/>
<path d="M65.5512 12.7429H64.7679V7.58731H63.0506V6.8655H67.2685V7.58731H65.5512V12.7429Z" fill="white" stroke="white" stroke-width="0.0408889" stroke-miterlimit="10"/>
<path d="M75.2445 11.9868C74.6401 12.5811 73.8913 12.8777 72.9982 12.8777C72.0999 12.8777 71.3511 12.5811 70.7467 11.9868C70.1436 11.3937 69.8433 10.6657 69.8433 9.80422C69.8433 8.94272 70.1436 8.21479 70.7467 7.62166C71.3511 7.0273 72.0999 6.73074 72.9982 6.73074C73.8862 6.73074 74.635 7.0273 75.2394 7.62656C75.8476 8.22459 76.1479 8.94762 76.1479 9.80422C76.1479 10.6657 75.8476 11.3937 75.2445 11.9868ZM71.3307 11.4941C71.7855 11.9341 72.3388 12.1547 72.9982 12.1547C73.6524 12.1547 74.2108 11.9341 74.6605 11.4941C75.1142 11.0542 75.3442 10.4893 75.3442 9.80422C75.3442 9.11918 75.1142 8.55424 74.6605 8.1143C74.2108 7.67435 73.6524 7.45377 72.9982 7.45377C72.3388 7.45377 71.7855 7.67435 71.3307 8.1143C70.877 8.55424 70.647 9.11918 70.647 9.80422C70.647 10.4893 70.877 11.0542 71.3307 11.4941Z" fill="white" stroke="white" stroke-width="0.0408889" stroke-miterlimit="10"/>
<path d="M77.2557 12.7429V6.8655H78.214L81.1938 11.4365H81.2283L81.1938 10.3066V6.8655H81.9822V12.7429H81.1593L78.039 7.94637H78.0045L78.039 9.08116V12.7429H77.2557Z" fill="white" stroke="white" stroke-width="0.0408889" stroke-miterlimit="10"/>
<path d="M69.6492 21.3253C67.2482 21.3253 65.2869 23.0777 65.2869 25.4956C65.2869 27.8938 67.2482 29.6647 69.6492 29.6647C72.0552 29.6647 74.0166 27.8938 74.0166 25.4956C74.0166 23.0777 72.0552 21.3253 69.6492 21.3253ZM69.6492 28.0225C68.3318 28.0225 67.1984 26.9796 67.1984 25.4956C67.1984 23.9919 68.3318 22.9675 69.6492 22.9675C70.9666 22.9675 72.1051 23.9919 72.1051 25.4956C72.1051 26.9796 70.9666 28.0225 69.6492 28.0225ZM60.131 21.3253C57.725 21.3253 55.7687 23.0777 55.7687 25.4956C55.7687 27.8938 57.725 29.6647 60.131 29.6647C62.5358 29.6647 64.4934 27.8938 64.4934 25.4956C64.4934 23.0777 62.5358 21.3253 60.131 21.3253ZM60.131 28.0225C58.8124 28.0225 57.6751 26.9796 57.6751 25.4956C57.6751 23.9919 58.8124 22.9675 60.131 22.9675C61.4484 22.9675 62.5818 23.9919 62.5818 25.4956C62.5818 26.9796 61.4484 28.0225 60.131 28.0225ZM48.8048 22.6035V24.3755H53.217C53.0879 25.3657 52.7429 26.0936 52.2139 26.601C51.5699 27.2137 50.5669 27.8938 48.8048 27.8938C46.0895 27.8938 43.9633 25.7922 43.9633 23.188C43.9633 20.5839 46.0895 18.4822 48.8048 18.4822C50.273 18.4822 51.3412 19.0325 52.1296 19.7457L53.4316 18.4969C52.3289 17.4871 50.862 16.7114 48.8048 16.7114C45.0814 16.7114 41.9521 19.617 41.9521 23.188C41.9521 26.7591 45.0814 29.6647 48.8048 29.6647C50.8173 29.6647 52.3289 29.0323 53.5172 27.8461C54.735 26.6782 55.1145 25.036 55.1145 23.7101C55.1145 23.2983 55.0787 22.9197 55.0148 22.6035H48.8048ZM95.1191 23.9772C94.7601 23.0447 93.6522 21.3253 91.3957 21.3253C89.1596 21.3253 87.2979 23.0152 87.2979 25.4956C87.2979 27.8314 89.1404 29.6647 91.6103 29.6647C93.6075 29.6647 94.7601 28.4968 95.2341 27.8166L93.7519 26.8694C93.2574 27.563 92.584 28.0225 91.6103 28.0225C90.6431 28.0225 89.9492 27.5973 89.5046 26.7591L95.3197 24.4515L95.1191 23.9772ZM89.1902 25.3657C89.1404 23.7579 90.4923 22.9344 91.4609 22.9344C92.2199 22.9344 92.8639 23.2983 93.0785 23.8192L89.1902 25.3657ZM84.4637 29.411H86.3753V17.1563H84.4637V29.411ZM81.3332 22.2542H81.2693C80.84 21.7665 80.0209 21.3253 78.9834 21.3253C76.806 21.3253 74.8152 23.1586 74.8152 25.5091C74.8152 27.8461 76.806 29.6647 78.9834 29.6647C80.0209 29.6647 80.84 29.2198 81.2693 28.7174H81.3332V29.3154C81.3332 30.9097 80.4451 31.7663 79.0127 31.7663C77.8449 31.7663 77.1204 30.9575 76.8214 30.2774L75.159 30.9428C75.6381 32.0482 76.907 33.4085 79.0127 33.4085C81.254 33.4085 83.1451 32.1438 83.1451 29.0666V21.579H81.3332V22.2542ZM79.1469 28.0225C77.8295 28.0225 76.7268 26.9649 76.7268 25.5091C76.7268 24.0397 77.8295 22.9675 79.1469 22.9675C80.4451 22.9675 81.4686 24.0397 81.4686 25.5091C81.4686 26.9649 80.4451 28.0225 79.1469 28.0225ZM104.069 17.1563H99.4968V29.411H101.403V24.7677H104.069C106.186 24.7677 108.262 23.2983 108.262 20.9614C108.262 18.6256 106.181 17.1563 104.069 17.1563ZM104.119 23.063H101.403V18.8609H104.119C105.542 18.8609 106.355 19.9945 106.355 20.9614C106.355 21.9099 105.542 23.063 104.119 23.063ZM115.903 21.302C114.526 21.302 113.094 21.8854 112.505 23.1782L114.196 23.8584C114.561 23.1782 115.23 22.9576 115.938 22.9576C116.927 22.9576 117.93 23.5275 117.945 24.5336V24.6623C117.6 24.4711 116.862 24.188 115.953 24.188C114.131 24.188 112.275 25.15 112.275 26.9453C112.275 28.5875 113.767 29.645 115.445 29.645C116.728 29.645 117.436 29.0899 117.88 28.4441H117.945V29.3914H119.787V24.6905C119.787 22.5177 118.095 21.302 115.903 21.302ZM115.673 28.0176C115.05 28.0176 114.181 27.7211 114.181 26.9796C114.181 26.0311 115.265 25.6672 116.202 25.6672C117.042 25.6672 117.436 25.8449 117.945 26.0789C117.796 27.2137 116.777 28.0176 115.673 28.0176ZM126.495 21.5704L124.304 26.8828H124.238L121.973 21.5704H119.917L123.321 28.9943L121.379 33.1254H123.371L128.616 21.5704H126.495ZM109.31 29.411H111.222V17.1563H109.31V29.411Z" fill="white"/>
</svg>
